<svg id="Layer_1" data-name="Layer 1" xmlns="http://www.w3.org/2000/svg" viewBox="0 0 946.86 308.25"><defs><style>.cls-1{fill:#fff;}.cls-2{fill:#ffc91f;}.cls-3{fill:#d6d6d6;}.cls-4{fill:#d8b193;}.cls-5{fill:#d87c8d;}</style></defs><title>logo copy copy</title><path class="cls-1" d="M20.2,286.1C24.3,299,41.6,301.9,54,301.9c13.3,0,33.9-4.1,33.9-19.8,0-13.6-16.4-14.7-33.5-16.1-21.5-1.7-44.6-3.7-44.6-27,0-20.6,23.7-29.8,42.7-29.8,16.4,0,36.8,3.9,43.4,21.7,2.3,6.2-8.3,9-10.6,3.7-4.7-11.9-21.4-13.9-32.6-13.9-10.5,0-30.7,4.2-30.7,18.4,0,13.6,15.6,15,33.7,16.4,21.4,1.9,44.3,3,44.3,26.4,0,23.9-26.7,31.2-45.9,31.2-15.9,0-40.2-5.5-45.4-24.2C6.8,282.1,19,279.7,20.2,286.1Z" transform="translate(-5.64 -4.85)"/><path class="cls-1" d="M128.8,257.9h57.4V215.3c0-7.5,11.4-7.5,11.4,0v90.9c0,7.6-11.4,8-11.4,0V267.7H128.8v38.5c0,8.1-11.2,7.2-11.2,0V215.3c0-7.6,11.2-7.2,11.2,0v42.6h0Z" transform="translate(-5.64 -4.85)"/><path class="cls-1" d="M304.5,215.6c0-7.6,11.7-7.6,11.7-.2v51.3c0,30-23.2,45.1-46,45.1s-46-15.1-46-45.1V215.4c0-6.9,11.7-6.9,11.7.2v51.2c0,45.1,68.6,45.1,68.6,0V215.6Z" transform="translate(-5.64 -4.85)"/><path class="cls-1" d="M392.9,300h66.6c7.3,0,7.5,10.3,0,10.8H382.4c-6.1,0-8-4.8-4.5-9l69.9-80H384.6c-6.9,0-7-9.8,0-10.3h74.3c6.4,0,8.1,4.8,4.5,9.4Z" transform="translate(-5.64 -4.85)"/><path class="cls-1" d="M492.1,257.9h57.4V215.3c0-7.5,11.4-7.5,11.4,0v90.9c0,7.6-11.4,8-11.4,0V267.7H492.1v38.5c0,8.1-11.2,7.2-11.2,0V215.3c0-7.6,11.2-7.2,11.2,0v42.6h0Z" transform="translate(-5.64 -4.85)"/><path class="cls-1" d="M599.1,284.6l-12.6,24.6c-2.8,5.8-13.1,1.7-10.3-4.5l47.1-92.8a5.54,5.54,0,0,1,5.1-3,5.42,5.42,0,0,1,5,3l47,92.3c4.1,6.7-7.5,10.6-10.5,4.5l-12.2-24.2-58.6.1h0Zm29.3-59-24.6,49.1h49.1Z" transform="translate(-5.64 -4.85)"/><path class="cls-1" d="M766.8,215.3c0-6.6,11.9-6.9,11.9,0v89.5c0,7.8-10.8,8.6-14,3.1l-58.3-78.2,1.2,21.5v55.1c0,7.6-11.9,7.8-11.9,0V217c0-7.8,8.7-9,12.6-3.3L768.4,294l-1.6-23.6V215.3h0Z" transform="translate(-5.64 -4.85)"/><path class="cls-1" d="M886.9,293.4c-9.2,12.2-24.6,18.9-39.8,18.7-26.8-.2-49.9-22.5-49.3-51.9,0-23.7,17.8-45.4,41.6-49.9a66.41,66.41,0,0,1,8.1-.5c13.6,0,28.1,4.7,36.7,14.7,4.7,5.5-3.3,12.9-8.1,7.3-8.7-10.1-23.2-13.7-34.9-10.8-17.2,4.1-32.1,19.2-32.1,39.6,0.3,22,18.1,40.4,38.2,40.9,11.5,0.2,23.6-4.8,30.4-14V266.8H849.6c-7.3,0-6.6-10.3,0-10.3h33.1c4.5,0,5.9,2.3,5.9,5.8v26A7,7,0,0,1,886.9,293.4Z" transform="translate(-5.64 -4.85)"/><path class="cls-1" d="M174.7,169.7a3.5,3.5,0,1,1,0-7H297.8l0.1,3.5,3.5,0.1c-0.1,3.4-3.2,3.4-5.5,3.4H174.7Z" transform="translate(-5.64 -4.85)"/><path class="cls-1" d="M297.8,169.6h0a3.5,3.5,0,0,1-3.5-3.6c0-.3.5-29.9,0.5-93.2,0-57.5-.4-62.9-0.4-63.4a3.59,3.59,0,0,0,1.5,2.4l2-2.9L300,6.1c1.5,1.1,1.5,1.1,1.6,11,0.2,10.7.2,29.4,0.2,55.6,0,63.3-.5,93-0.5,93.3A3.5,3.5,0,0,1,297.8,169.6Z" transform="translate(-5.64 -4.85)"/><path class="cls-1" d="M137,17a4.25,4.25,0,0,1-1.1-.2,3.51,3.51,0,0,1-2.2-4.4c2.5-7.7,11.3-7.7,30.5-7.5H174c43.8,0.1,122.2.6,123,.7a3.5,3.5,0,0,1,0,7h0c-0.8,0-79.2-.6-123-0.6h-9.8c-13.8-.1-22.9-0.2-23.8,2.7A3.69,3.69,0,0,1,137,17Z" transform="translate(-5.64 -4.85)"/><path class="cls-1" d="M135.2,160.7a1.27,1.27,0,0,1-.6-0.1,3.51,3.51,0,0,1-2.8-4.1c0.9-4.6.8-11.3,0.7-19.8V26.3c0-6-.1-10.3,1.1-13.6a3.51,3.51,0,0,1,6.6,2.4c-0.8,2-.7,6-0.7,11.1V136.8c0.1,8.8.1,15.8-.9,21.1A3.36,3.36,0,0,1,135.2,160.7Z" transform="translate(-5.64 -4.85)"/><path class="cls-1" d="M125.1,169.3h-0.9c-30-1.9-82.3-13.7-105.8-19.7-4.2-1.1-7-6.4-9.1-17.4a221.29,221.29,0,0,1-3.3-32A327.76,327.76,0,0,1,7,54c2.3-21.8,6.5-25.9,9.8-27.1,18.8-6.6,66-13.2,68-13.5a3.54,3.54,0,0,1,1,7c-0.5.1-48.4,6.8-66.6,13.2-2.6,1.8-6.4,17.9-6.6,48.1-0.3,35.7,4.3,58.8,7.6,61.2,23.4,5.9,75,17.6,104.4,19.5,3.7,0.3,6.7-2.3,7.4-6.4a3.51,3.51,0,0,1,6.9,1.3C137.6,164.4,132,169.3,125.1,169.3Z" transform="translate(-5.64 -4.85)"/><path class="cls-1" d="M750,170.1H321.1a3.5,3.5,0,0,1,0-7H750a3.54,3.54,0,0,1,3.5,3.5A3.48,3.48,0,0,1,750,170.1Z" transform="translate(-5.64 -4.85)"/><path class="cls-1" d="M705,170.1h0a3.54,3.54,0,0,1-3.5-3.5L701.6,9.3a3.54,3.54,0,0,1,3.5-3.5h0a3.54,3.54,0,0,1,3.5,3.5l-0.1,157.3A3.48,3.48,0,0,1,705,170.1Z" transform="translate(-5.64 -4.85)"/><path class="cls-1" d="M750.2,12.7H321.3a3.5,3.5,0,1,1,0-7H750.2A3.5,3.5,0,0,1,750.2,12.7Z" transform="translate(-5.64 -4.85)"/><path class="cls-1" d="M938.3,103.5H913a3.5,3.5,0,0,1,0-7h18.3L919.5,80.8a3.54,3.54,0,0,1-.3-3.7,3.43,3.43,0,0,1,3.1-1.9H949a3.5,3.5,0,0,1,0,7H929.4l11.8,15.7a3.54,3.54,0,0,1,.3,3.7A3.7,3.7,0,0,1,938.3,103.5Z" transform="translate(-5.64 -4.85)"/><path class="cls-1" d="M774.8,170.1a3.33,3.33,0,0,1-3.2-2.2,3.57,3.57,0,0,1,1.9-4.6L884,118.8c2.4-3.4,11.7-17.4,11.7-29.5S885.8,64.7,883.6,62L773.3,12.9a3.49,3.49,0,0,1,2.8-6.4L887.1,56a4.7,4.7,0,0,1,1.2.9c0.6,0.7,14.4,16.2,14.4,32.5s-13.2,33.7-13.7,34.4a3.27,3.27,0,0,1-1.5,1.1L776,169.8A2.66,2.66,0,0,1,774.8,170.1Z" transform="translate(-5.64 -4.85)"/><path class="cls-2" d="M685.8,138.5c0,5.6-4.1,10.1-9.1,10.1H322.4c-5,0-9.1-4.5-9.1-10.1V35.6c0-5.6,4.1-10.1,9.1-10.1H676.7c5,0,9.1,4.5,9.1,10.1V138.5h0Z" transform="translate(-5.64 -4.85)"/><path class="cls-3" d="M282.5,138.4a9.82,9.82,0,0,1-9.6,10H163.6a9.82,9.82,0,0,1-9.6-10V35.8a9.82,9.82,0,0,1,9.6-10H273a9.82,9.82,0,0,1,9.6,10l-0.1,102.6h0Z" transform="translate(-5.64 -4.85)"/><path class="cls-4" d="M863.5,100.9c0,5.4-3.6,7.6-9.8,9.8L733.9,146.8a9.82,9.82,0,0,1-9.8-9.8V37.2a9.82,9.82,0,0,1,9.8-9.8L853.7,68c5.2,1.5,9.8,4.4,9.8,9.8v23.1Z" transform="translate(-5.64 -4.85)"/><path class="cls-5" d="M121.4,134.9a9.82,9.82,0,0,1-9.8,9.8l-70.9-9.1c-15.4-4-12.7-11.6-14.4-24.3L25.7,55c1-14.3,9-13.7,15.1-15.2l70.9-8.4a9.82,9.82,0,0,1,9.8,9.8l-0.1,93.7h0Z" transform="translate(-5.64 -4.85)"/></svg>